<?xml version="1.0" standalone="no"?>
<!DOCTYPE svg PUBLIC "-//W3C//DTD SVG 20010904//EN"
 "http://www.w3.org/TR/2001/REC-SVG-20010904/DTD/svg10.dtd">
<svg version="1.0" xmlns="http://www.w3.org/2000/svg"
 width="1024.000000pt" height="1024.000000pt" viewBox="0 0 1024.000000 1024.000000"
 preserveAspectRatio="xMidYMid meet">
<metadata>
Created by potrace 1.14, written by Peter Selinger 2001-2017
</metadata>
<g transform="translate(0.000000,1024.000000) scale(0.100000,-0.100000)"
fill="#000000" stroke="none">
<path d="M0 5120 l0 -5120 5120 0 5120 0 0 5120 0 5120 -5120 0 -5120 0 0
-5120z m3394 1800 c36 -14 68 -36 98 -68 39 -42 423 -560 771 -1040 183 -254
198 -272 208 -267 5 3 48 59 96 123 91 122 119 157 166 205 15 16 27 31 27 34
0 3 9 15 20 27 11 11 77 95 147 186 69 91 141 184 160 208 18 24 33 47 33 52
0 10 -19 8 -37 -3 -8 -5 -13 -4 -13 2 0 6 5 11 11 11 5 0 7 5 3 12 -5 8 -12 2
-20 -17 -7 -17 -13 -24 -14 -16 0 8 -15 0 -38 -20 -21 -19 -37 -37 -36 -40 2
-3 -15 -16 -36 -30 -22 -13 -40 -30 -40 -37 0 -6 -12 -22 -27 -35 -14 -12 -36
-33 -47 -46 -38 -44 -77 -76 -99 -81 -12 -3 -28 -18 -35 -33 -11 -23 -16 -26
-28 -16 -8 6 -14 17 -14 23 0 6 7 2 15 -8 8 -11 15 -15 15 -9 0 14 -25 35 -33
27 -9 -9 -337 434 -364 493 -30 65 -34 157 -10 215 24 56 91 123 149 148 44
19 65 22 137 18 147 -7 166 -23 394 -330 79 -106 153 -201 163 -210 20 -17 22
-15 84 70 36 48 92 120 125 161 33 40 75 95 93 123 84 127 165 179 290 186 98
5 154 -12 214 -66 63 -57 92 -123 92 -213 1 -69 -2 -81 -32 -128 -56 -92 -262
-354 -918 -1171 -196 -245 -414 -525 -684 -877 -80 -106 -95 -121 -109 -110
-14 11 -14 10 -3 -5 15 -19 7 -42 -10 -32 -6 4 -9 3 -5 -2 7 -13 -60 -105 -74
-101 -6 1 -14 -5 -16 -13 -4 -13 -3 -13 6 0 6 8 11 12 11 8 0 -13 -83 -118
-93 -118 -6 0 -2 9 7 19 17 19 17 19 -3 14 -12 -3 -19 -8 -16 -11 2 -3 -5 -10
-17 -16 -12 -6 -24 -18 -26 -26 -4 -11 -1 -10 12 3 19 18 36 22 36 8 0 -4 -26
-20 -57 -34 -44 -19 -76 -25 -130 -26 -45 -1 -73 3 -73 10 0 5 -4 7 -10 4 -13
-8 -81 25 -74 36 3 5 -1 6 -9 4 -17 -7 -51 30 -42 45 3 6 1 9 -7 8 -7 -2 -24
19 -38 47 -21 42 -25 64 -25 135 0 103 15 134 135 290 44 58 126 166 182 240
55 74 112 147 126 162 14 15 22 33 19 42 -4 9 -1 13 7 10 12 -5 75 63 112 121
10 17 23 35 29 41 5 7 17 20 25 30 8 11 37 45 63 77 26 33 44 63 41 68 -3 5
-2 8 3 7 4 -2 9 0 10 5 2 4 19 21 38 39 21 18 34 37 31 45 -3 8 -1 11 4 8 11
-7 14 8 4 18 -11 11 -33 -4 -27 -19 3 -8 1 -14 -5 -14 -16 0 -8 29 14 45 18
14 18 14 -3 10 -17 -3 -20 0 -15 13 3 9 -9 2 -26 -16 -24 -24 -31 -40 -28 -55
3 -12 3 -16 0 -9 -4 10 -16 2 -40 -23 -19 -21 -34 -41 -34 -46 0 -4 -10 -15
-22 -23 -13 -10 -17 -16 -9 -16 15 0 6 -14 -10 -16 -5 -1 -13 -2 -19 -3 -5 0
-10 -7 -10 -15 0 -8 -7 -16 -15 -20 -8 -3 -15 -17 -15 -31 0 -15 -4 -24 -9
-21 -5 3 -20 -5 -35 -19 -15 -14 -35 -29 -46 -35 -11 -6 -20 -20 -20 -32 0
-17 -2 -18 -15 -8 -13 11 -14 10 -9 -4 3 -9 1 -16 -6 -16 -6 0 -8 -5 -5 -10 4
-6 11 -8 16 -5 5 3 6 -1 3 -10 -4 -8 -1 -22 6 -30 7 -8 10 -15 7 -15 -6 0
-299 396 -841 1138 -248 339 -241 327 -241 427 0 71 4 89 30 140 32 61 96 116
159 134 57 17 162 12 220 -9z m3752 -7 c45 -24 104 -85 130 -135 26 -49 31
-175 9 -219 -22 -43 -167 -251 -305 -435 -58 -78 -150 -204 -205 -279 -142
-196 -297 -405 -379 -513 -39 -51 -81 -107 -94 -125 -25 -34 -36 -35 -38 -2
-2 49 -3 51 -15 35 -9 -12 -10 -12 -5 3 10 32 -31 86 -148 196 -67 62 -94 90
-123 129 -14 17 -32 32 -39 32 -13 0 -15 6 -18 55 -2 30 15 50 27 33 6 -9 7
-8 3 5 -6 20 47 95 701 979 145 197 173 225 252 255 55 20 195 12 247 -14z
m-1246 -1272 c-5 -11 -15 -23 -22 -27 -7 -5 -8 -2 -3 7 21 37 44 55 25 20z
m-94 -91 c24 -30 107 -138 184 -240 77 -102 149 -194 159 -205 18 -20 163
-211 191 -252 8 -12 43 -58 78 -103 34 -44 60 -85 57 -91 -4 -5 -11 -7 -16 -3
-5 3 -7 10 -4 15 9 14 -44 77 -63 75 -9 -2 -22 4 -29 13 -20 26 -15 33 8 10
11 -11 24 -18 27 -14 4 3 2 9 -4 13 -5 4 -17 20 -27 35 -10 15 -21 25 -26 23
-4 -3 -14 10 -21 29 -15 37 -27 44 -36 21 -3 -8 4 -24 15 -35 28 -28 26 -41
-5 -41 -18 0 -25 4 -21 14 7 17 -22 31 -35 18 -5 -5 -42 -7 -82 -4 -67 4 -73
3 -78 -16 -4 -16 -2 -19 10 -15 10 4 13 2 8 -5 -4 -7 -16 -12 -27 -12 -26 0
-69 -29 -69 -46 0 -9 -12 -15 -32 -16 -18 0 -38 -2 -45 -2 -16 -2 -60 -69 -55
-84 5 -16 -25 -15 -31 1 -3 7 -4 29 -3 48 2 27 -1 35 -15 35 -10 0 -17 -3 -17
-6 2 -18 -4 -21 -19 -9 -15 11 -16 11 -5 -1 14 -17 16 -34 2 -25 -5 3 -10 2
-10 -4 0 -13 17 -23 22 -12 1 5 9 3 16 -5 7 -8 8 -14 2 -14 -5 0 -10 -5 -10
-12 0 -6 3 -8 7 -5 9 9 34 -13 27 -24 -3 -5 6 -24 20 -42 15 -19 26 -37 26
-41 0 -4 -56 68 -125 158 -121 161 -138 185 -113 170 7 -4 8 -3 4 5 -4 6 -11
9 -16 6 -8 -5 -260 325 -260 341 0 5 9 -4 19 -20 11 -16 27 -31 36 -32 16 -2
79 45 71 53 -5 6 44 76 57 81 4 2 7 10 7 17 0 8 8 20 18 27 16 11 39 53 30 53
-2 0 7 11 19 24 13 14 27 39 34 58 6 18 16 33 23 33 7 0 20 16 29 35 15 31 26
40 50 36 13 -2 7 15 -18 49 -14 19 -25 36 -25 39 1 6 6 0 86 -99z m-2969 28
c42 -25 74 -77 67 -109 -4 -17 -3 -20 4 -11 6 9 9 -13 9 -65 l0 -78 -6 65 c-5
59 -8 65 -30 68 l-23 4 21 14 c12 9 21 21 21 27 0 7 -7 4 -14 -5 -8 -12 -27
-18 -50 -18 -25 0 -36 -4 -36 -15 0 -8 5 -15 11 -15 5 0 7 -4 4 -10 -3 -5 -26
-10 -51 -10 -35 0 -44 -4 -45 -17 0 -16 -1 -15 -8 2 -7 16 -9 14 -14 -13 -4
-19 -13 -32 -21 -32 -8 0 -21 -9 -30 -21 l-14 -21 -5 23 c-3 17 -5 12 -6 -13
-2 -52 -21 -60 -21 -9 0 23 -4 41 -10 41 -6 0 -11 -92 -13 -242 l-2 -243 -3
297 c-2 289 1 345 19 316 5 -8 8 -2 6 17 -1 23 2 29 14 27 9 -1 22 6 30 15 11
15 11 16 -1 6 -16 -15 -30 -17 -30 -5 0 13 62 45 100 52 46 9 88 2 127 -22z
m80 -335 c-3 -10 -5 -4 -5 12 0 17 2 24 5 18 2 -7 2 -21 0 -30z m2213 -549 c0
-16 2 -16 16 2 15 19 15 19 9 0 -3 -11 0 -23 7 -28 9 -5 4 -7 -12 -6 -16 2
-24 -2 -22 -10 1 -9 -5 -8 -23 4 -14 9 -26 21 -27 28 0 6 -2 18 -2 26 -1 8 -8
14 -15 12 -7 -1 -10 2 -6 7 3 6 12 8 20 4 8 -3 15 -1 15 5 0 5 -7 12 -15 16
-8 3 -15 11 -15 17 0 7 16 -4 35 -24 19 -20 35 -44 35 -53z m696 -14 c0 -21
-11 -26 -21 -10 -7 11 2 30 13 30 4 0 8 -9 8 -20z m614 -21 c15 -28 5 -23 -15
7 -9 15 -12 23 -6 20 6 -4 16 -16 21 -27z m115 -89 c10 -11 16 -20 13 -20 -3
0 -13 9 -23 20 -10 11 -16 20 -13 20 3 0 13 -9 23 -20z m-650 -59 c3 -5 2 -12
-3 -15 -5 -3 -9 1 -9 9 0 17 3 19 12 6z m-905 -41 c0 -5 -9 -10 -20 -10 -11 0
-20 5 -20 10 0 6 9 10 20 10 11 0 20 -4 20 -10z m921 -7 c13 -16 12 -17 -3 -4
-10 7 -18 15 -18 17 0 8 8 3 21 -13z m-1231 -71 c1 8 8 5 18 -8 27 -32 61 -48
76 -34 10 8 15 6 19 -10 4 -17 13 -20 61 -20 41 0 56 -4 56 -14 0 -11 -12 -13
-59 -9 -66 6 -84 -6 -55 -38 16 -18 16 -19 0 -19 -9 0 -14 -5 -11 -10 4 -6 10
-8 14 -5 12 7 52 -40 49 -56 -2 -7 4 -13 12 -14 8 0 14 -7 12 -14 -1 -7 5 -20
15 -28 17 -13 17 -13 -2 -4 -22 10 -58 48 -99 104 -25 34 -25 42 -3 38 5 -1 6
3 2 8 -3 6 -11 8 -18 5 -14 -5 -52 39 -106 121 -27 41 -28 45 -7 22 14 -15 26
-22 26 -15z m85 18 c3 -5 -1 -10 -10 -10 -9 0 -13 5 -10 10 3 6 8 10 10 10 2
0 7 -4 10 -10z m1201 -9 c-3 -5 1 -14 9 -21 8 -7 15 -17 15 -22 0 -6 -9 0 -19
13 -17 21 -19 39 -5 39 3 0 3 -4 0 -9z m-366 -25 c0 -2 -8 -10 -17 -17 -16
-13 -17 -12 -4 4 13 16 21 21 21 13z m-665 -106 c3 -5 1 -10 -4 -10 -6 0 -11
5 -11 10 0 6 2 10 4 10 3 0 8 -4 11 -10z m-69 -64 c2 -15 2 -27 1 -25 -1 2
-12 16 -25 30 l-23 26 22 -1 c16 -1 23 -8 25 -30z m511 -59 c0 -8 -6 -14 -14
-14 -9 0 -10 4 -2 14 6 7 12 13 14 13 1 0 2 -6 2 -13z"/>
<path d="M4193 4307 c-3 -6 -1 -7 5 -3 6 3 13 2 17 -3 3 -5 -3 -14 -12 -20
-10 -6 -13 -11 -6 -11 12 0 26 17 29 36 2 13 -25 14 -33 1z"/>
<path d="M3719 4148 c-5 -18 -6 -38 -1 -34 7 8 12 36 6 36 -2 0 -4 -1 -5 -2z"/>
<path d="M6261 5258 c7 -16 16 -28 21 -28 13 0 10 9 -13 33 l-21 22 13 -27z"/>
<path d="M6250 4906 c-5 -5 -10 -15 -10 -20 0 -6 5 -4 10 4 6 9 10 11 10 3 0
-7 6 -10 13 -7 17 6 18 31 1 31 -7 0 -18 -5 -24 -11z"/>
<path d="M5713 4761 c1 -12 6 -17 16 -13 10 4 13 1 9 -9 -3 -9 3 -26 14 -40
l19 -24 -12 25 c-7 14 -13 30 -14 36 0 6 -8 18 -17 27 -16 16 -17 16 -15 -2z"/>
<path d="M2690 5566 c0 -2 7 -7 16 -10 8 -3 12 -2 9 4 -6 10 -25 14 -25 6z"/>
<path d="M2836 5553 c-4 -5 -12 -8 -17 -8 -5 0 -10 -4 -11 -9 -2 -5 13 -10 32
-11 19 -2 27 -1 18 2 -10 2 -15 10 -11 19 6 15 1 18 -11 7z"/>
<path d="M2657 5543 c-3 -4 5 -9 16 -10 12 -1 40 -4 62 -7 40 -5 40 -5 5 4
-19 4 -45 11 -56 15 -12 4 -24 3 -27 -2z"/>
<path d="M2611 5454 c0 -11 3 -14 6 -6 3 7 2 16 -1 19 -3 4 -6 -2 -5 -13z"/>
<path d="M2580 5391 c0 -14 5 -19 15 -14 17 6 15 25 -3 31 -7 2 -12 -5 -12
-17z"/>
<path d="M2632 5390 c0 -14 2 -19 5 -12 2 6 2 18 0 25 -3 6 -5 1 -5 -13z"/>
<path d="M4691 4375 c0 -5 6 -19 14 -29 8 -11 15 -15 15 -10 0 6 -7 19 -15 30
-8 10 -14 15 -14 9z"/>
<path d="M4748 4308 c17 -17 40 -18 46 -2 3 8 -1 14 -8 14 -8 0 -17 -6 -19
-12 -4 -10 -6 -10 -6 0 -1 6 -6 12 -13 12 -9 0 -9 -3 0 -12z"/>
<path d="M4810 4214 c1 -13 29 -48 34 -43 2 2 -4 15 -15 28 -10 13 -19 19 -19
15z"/>
</g>
</svg>
